# xmcd
#
# Track frame offsets: 
#        150
#        17612
#        32265
#        49882
#        67292
#        81016
#        99003
#        113812
#        130271
#        147776
#        166011
#        180247
#        199125
#        214668
#        233176
#        247872
#
# Disc length: 3507 seconds
#
# Revision: 0
# Processed by: cddbd v1.5.2PL0 Copyright (c) Steve Scherf et al.
# Submitted via: ExactAudioCopy v0.99pb1
#
DISCID=c60db110
DTITLE=Ellis Hooks - Another Saturday Morning
DYEAR=2007
DGENRE=Blues
TTITLE0=Black Dirt
TTITLE1=You Move Too Fast
TTITLE2=Don't Stop Dancing
TTITLE3=Your River
TTITLE4=This Great Feeling
TTITLE5=Don't Come Running
TTITLE6=Bad Me
TTITLE7=I've Had It
TTITLE8=Rain On Wood
TTITLE9=Another Sat Morning
TTITLE10=You Don't Know Me
TTITLE11=Do I Ever Cross Your Heart
TTITLE12=Feel My Vibration
TTITLE13=Churchyard Girl
TTITLE14=The Road To Your Heart
TTITLE15=If I Give You My Heart For Christmas
EXTD=
EXTT0=
EXTT1=
EXTT2=
EXTT3=
EXTT4=
EXTT5=
EXTT6=
EXTT7=
EXTT8=
EXTT9=
EXTT10=
EXTT11=
EXTT12=
EXTT13=
EXTT14=
EXTT15=
PLAYORDER=
